<svg xmlns="http://www.w3.org/2000/svg" width="80" height="80" viewBox="0 0 80 80">
    <g fill="#FF884D" fill-rule="evenodd">
        <rect width="80" height="80" fill-opacity=".1" fill-rule="nonzero" rx="40"/>
        <path d="M29.36 49.197c-2.096 0-3.8-1.682-3.8-3.75V31.199h-2.28c-1.26 0-2.28 1.008-2.28 2.25v17.998c0 1.241 1.02 2.25 2.28 2.25h3.8v4.5c0 .887.739 1.502 1.526 1.502.309 0 .623-.094.906-.302l7.7-5.7H48.36l-6.08-4.5H29.36z"/>
        <path d="M56.72 25.2H29.36c-1.26 0-2.28 1.008-2.28 2.25v17.997c0 1.241 1.02 2.25 2.28 2.25h13.426l7.7 5.7c.283.208.598.303.906.303.79 0 1.526-.614 1.526-1.504v-4.5h3.8c1.26 0 2.28-1.007 2.28-2.25V27.45C59 26.207 57.98 25.2 56.72 25.2zm-6.08 14.997h-15.2a.755.755 0 0 1-.76-.75c0-.415.34-.75.76-.75h15.2c.42 0 .76.335.76.75 0 .413-.34.75-.76.75zm0-6h-15.2a.755.755 0 0 1-.76-.75c0-.415.34-.75.76-.75h15.2c.42 0 .76.335.76.75 0 .413-.34.75-.76.75z"/>
    </g>
</svg>
