<svg xmlns="http://www.w3.org/2000/svg" width="80" height="80" viewBox="0 0 80 80">
    <g fill="#FF884D" fill-rule="evenodd">
        <rect width="80" height="80" fill-opacity=".1" fill-rule="nonzero" rx="40"/>
        <path d="M48.438 40.7l.875 10.205h8.981l-1.048-19.177c-.066-1.21-1.052-2.157-2.244-2.157h-6.735l.09 9.49c.902-.525 1.142-1.502 1.142-2.632v-2.286c0-.42.335-.762.75-.762.413 0 .75.341.75.762v2.286c.001 1.96-.851 3.622-2.561 4.27zM58.38 52.429h-8.991l.112 2.29A3.81 3.81 0 0 1 48.732 57h7.52c1.291 0 2.318-1.102 2.246-2.412l-.118-2.16zM46.648 27.17C46.587 25.952 45.6 25 44.401 25H24.598c-1.198 0-2.185.952-2.246 2.171l-1.092 22.21h26.48L46.65 27.17zM40.5 34.143c0 3.366-2.686 6.095-6 6.095-3.313 0-6-2.729-6-6.095v-3.81c0-.42.336-.762.75-.762s.75.342.75.762v3.81c0 2.52 2.019 4.571 4.5 4.571s4.5-2.05 4.5-4.571v-3.81c0-.42.336-.762.75-.762s.75.342.75.762v3.81zM21.184 50.905l-.181 3.695a2.282 2.282 0 0 0 .617 1.69c.428.457 1.007.71 1.628.71h22.503c.622 0 1.2-.253 1.63-.71a2.282 2.282 0 0 0 .616-1.69l-.181-3.695H21.183z"/>
    </g>
</svg>
