<svg xmlns="http://www.w3.org/2000/svg" width="80" height="80" viewBox="0 0 80 80">
    <g fill="#FF884D" fill-rule="evenodd">
        <rect width="80" height="80" fill-opacity=".1" fill-rule="nonzero" rx="40"/>
        <path d="M53.265 43.53a6.803 6.803 0 0 1-4.532-1.745 6.644 6.644 0 0 1-4.508 1.744c-1.669 0-3.27-.64-4.493-1.743a6.652 6.652 0 0 1-4.507 1.744 6.735 6.735 0 0 1-4.502-1.751 6.81 6.81 0 0 1-4.539 1.75c-.756 0-2.183-.135-2.183-.37V58.75a2.25 2.25 0 0 0 2.25 2.25H28.5V49a1.5 1.5 0 0 1 1.5-1.5h7.5A1.5 1.5 0 0 1 39 49v12h14.25a2.25 2.25 0 0 0 2.25-2.25V43.156c0 .242-1.455.373-2.235.373zM48.75 58h-4.5a.75.75 0 0 1 0-1.5h4.5a.75.75 0 0 1 0 1.5zm.75-6a1.5 1.5 0 0 1-1.5 1.5h-3a1.5 1.5 0 0 1-1.5-1.5v-3a1.5 1.5 0 0 1 1.5-1.5h3a1.5 1.5 0 0 1 1.5 1.5v3zM52.796 26.026A1.5 1.5 0 0 0 51.372 25H29.535a1.5 1.5 0 0 0-1.423 1.026L27.453 28h26l-.658-1.974z"/>
        <path d="M58.182 35.754l-3.61-6.254h-28.42l-4.642 6c-.558.972-.663 2.106-.29 3.111.762 2.045 2.78 3.419 4.964 3.419a5.3 5.3 0 0 0 4.54-2.59c.915 1.543 2.58 2.59 4.5 2.59s3.586-1.048 4.5-2.59c.916 1.543 2.58 2.59 4.5 2.59s3.586-1.048 4.5-2.59a5.302 5.302 0 0 0 4.543 2.59c2.437 0 4.576-1.654 5.144-4.02.173-.723.093-1.503-.229-2.256z"/>
    </g>
</svg>
