<svg xmlns="http://www.w3.org/2000/svg" width="686" height="454" viewBox="0 0 686 454">
    <defs>
        <linearGradient id="a" x1="-36.042%" x2="61.45%" y1="0%" y2="126.296%">
            <stop offset="0%" stop-color="#F4E5D5"/>
            <stop offset="100%" stop-color="#D9C3A0"/>
        </linearGradient>
        <linearGradient id="b" x1="80.944%" x2="32.069%" y1="-48.225%" y2="69.161%">
            <stop offset="0%" stop-color="#7091AB"/>
            <stop offset="100%" stop-color="#35465C"/>
        </linearGradient>
        <linearGradient id="c" x1="-20.779%" x2="132.353%" y1="-19.384%" y2="155.846%">
            <stop offset="0%" stop-color="#FFC504"/>
            <stop offset="100%" stop-color="#FF4800"/>
        </linearGradient>
        <linearGradient id="d" x1="-36.042%" x2="61.45%" y1="0%" y2="126.296%">
            <stop offset="0%" stop-color="#FFF3E7"/>
            <stop offset="100%" stop-color="#E3D1B1"/>
        </linearGradient>
        <linearGradient id="e" x1="-85.902%" x2="124.062%" y1="146.525%" y2="-30.048%">
            <stop offset="0%" stop-color="#FFF3E7"/>
            <stop offset="100%" stop-color="#E3D1B1"/>
        </linearGradient>
        <linearGradient id="f" x1="142.315%" x2="-64.461%" y1="-59.591%" y2="160.076%">
            <stop offset="0%" stop-color="#F4E5D5"/>
            <stop offset="100%" stop-color="#D9C3A0"/>
        </linearGradient>
        <linearGradient id="g" x1="-272.517%" x2="32.069%" y1="-32.225%" y2="69.161%">
            <stop offset="0%" stop-color="#7091AB"/>
            <stop offset="100%" stop-color="#35465C"/>
        </linearGradient>
        <linearGradient id="h" x1="64.215%" x2="50%" y1="26.976%" y2="26.976%">
            <stop offset="0%" stop-color="#F1D4CA"/>
            <stop offset="100%" stop-color="#FDE9E3"/>
        </linearGradient>
        <linearGradient id="i" x1="-79.292%" x2="89.102%" y1="-76.808%" y2="148.047%">
            <stop offset="0%" stop-color="#FFC504"/>
            <stop offset="100%" stop-color="#FF4800"/>
        </linearGradient>
        <linearGradient id="j" x1="-159.415%" x2="38.452%" y1="-12.229%" y2="129.88%">
            <stop offset="0%" stop-color="#EF8C37"/>
            <stop offset="100%" stop-color="#CE5120"/>
        </linearGradient>
        <linearGradient id="k" x1="-48.951%" x2="118.46%" y1="-379.795%" y2="100%">
            <stop offset="0%" stop-color="#7091AB"/>
            <stop offset="100%" stop-color="#35465C"/>
        </linearGradient>
        <linearGradient id="l" x1="59.822%" x2="27.38%" y1="187.249%" y2="50%">
            <stop offset="0%" stop-color="#A1A1A1"/>
            <stop offset="100%" stop-color="#B7B7B7"/>
        </linearGradient>
        <linearGradient id="m" x1="75.545%" x2="44.435%" y1="90.221%" y2="90.221%">
            <stop offset="0%" stop-color="#EECFC4"/>
            <stop offset="100%" stop-color="#FDE9E3"/>
        </linearGradient>
        <linearGradient id="n" x1="-25.022%" y1="-6.921%" y2="42.084%">
            <stop offset="3.829%" stop-color="#F7F7F7"/>
            <stop offset="62.055%" stop-color="#DBDBDB"/>
            <stop offset="100%" stop-color="#AAA"/>
        </linearGradient>
        <linearGradient id="o" x1="-4.7%" x2="32.069%" y1="-17.039%" y2="69.161%">
            <stop offset="0%" stop-color="#7091AB"/>
            <stop offset="100%" stop-color="#35465C"/>
        </linearGradient>
        <linearGradient id="p" x1="79.655%" x2="58.577%" y1="90.221%" y2="90.221%">
            <stop offset="0%" stop-color="#F1D4CA"/>
            <stop offset="100%" stop-color="#FDE9E3"/>
        </linearGradient>
        <linearGradient id="q" x1="-20.779%" x2="86.151%" y1="-19.384%" y2="137.375%">
            <stop offset="0%" stop-color="#FFC504"/>
            <stop offset="100%" stop-color="#FF4800"/>
        </linearGradient>
        <linearGradient id="r" x1="37.812%" x2="50%" y1="-24.822%" y2="100%">
            <stop offset="0%" stop-color="#EEE"/>
            <stop offset="100%" stop-color="#D8D8D8"/>
        </linearGradient>
        <linearGradient id="s" x1="9.51%" x2="118.46%" y1="-25.254%" y2="100%">
            <stop offset="0%" stop-color="#7091AB"/>
            <stop offset="100%" stop-color="#35465C"/>
        </linearGradient>
        <linearGradient id="t" x1="29.276%" x2="50%" y1="12.98%" y2="100%">
            <stop offset="0%" stop-color="#848484"/>
            <stop offset="100%" stop-color="#434545"/>
        </linearGradient>
        <linearGradient id="u" x1="13.33%" x2="118.46%" y1="-120.118%" y2="100%">
            <stop offset="0%" stop-color="#7091AB"/>
            <stop offset="100%" stop-color="#35465C"/>
        </linearGradient>
        <linearGradient id="v" x1="88.667%" x2="50%" y1="82.655%" y2="90.221%">
            <stop offset="0%" stop-color="#F1D4CA"/>
            <stop offset="100%" stop-color="#FDE9E3"/>
        </linearGradient>
        <linearGradient id="w" x1="84.639%" x2="52.667%" y1="90.221%" y2="91.783%">
            <stop offset="0%" stop-color="#F1D4CA"/>
            <stop offset="100%" stop-color="#FDE9E3"/>
        </linearGradient>
        <linearGradient id="x" x1="80.944%" x2="32.069%" y1="-48.225%" y2="69.161%">
            <stop offset="0%" stop-color="#415A6D"/>
            <stop offset="100%" stop-color="#35465C"/>
        </linearGradient>
        <linearGradient id="y" x1="11.504%" x2="122.541%" y1="27.767%" y2="92.403%">
            <stop offset="0%" stop-color="#EF8C37"/>
            <stop offset="100%" stop-color="#CE5120"/>
        </linearGradient>
        <linearGradient id="z" x1="44.316%" x2="-9.697%" y1="80.745%" y2="63.057%">
            <stop offset="0%" stop-color="#F1D4CA"/>
            <stop offset="100%" stop-color="#FDE9E3"/>
        </linearGradient>
        <linearGradient id="A" x1="49.982%" x2="49.982%" y1="1.927%" y2="99.814%">
            <stop offset="0%" stop-color="#FFF"/>
            <stop offset="100%" stop-color="#D5D5D5"/>
        </linearGradient>
        <linearGradient id="B" x1="50%" x2="50%" y1="-28.106%" y2="176.796%">
            <stop offset="0%" stop-color="#FFF"/>
            <stop offset="100%" stop-color="#E6E6E6"/>
        </linearGradient>
        <linearGradient id="C" x1="50%" x2="50%" y1="-28.106%" y2="176.796%">
            <stop offset="0%" stop-color="#FFF"/>
            <stop offset="100%" stop-color="#EEE"/>
        </linearGradient>
        <linearGradient id="D" x1="70.757%" y1="107.997%" y2="100%">
            <stop offset="0%" stop-color="#F6F6F6"/>
            <stop offset="100%" stop-color="#C9C9C9"/>
        </linearGradient>
        <linearGradient id="E" x1="65.173%" x2="32.069%" y1="-22.636%" y2="69.161%">
            <stop offset="0%" stop-color="#7091AB"/>
            <stop offset="100%" stop-color="#35465C"/>
        </linearGradient>
        <linearGradient id="F" x1="-11.599%" x2="76.363%" y1="-9.454%" y2="89.473%">
            <stop offset="0%" stop-color="#FFC504"/>
            <stop offset="100%" stop-color="#FF4800"/>
        </linearGradient>
        <linearGradient id="G" x1="-20.779%" x2="50%" y1="-19.384%" y2="100%">
            <stop offset="0%" stop-color="#FFC504"/>
            <stop offset="100%" stop-color="#FF4800"/>
        </linearGradient>
    </defs>
    <g fill="none" fill-rule="evenodd">
        <path fill="url(#a)" d="M132 144h214.427v209.632c0 55.228-44.772 100-100 100H132c-55.228 0-100-44.772-100-100V244c0-55.228 44.772-100 100-100z"/>
        <path fill="url(#b)" d="M44.47 402.286c13.334 20.666 27 34 41 40 10-33.334 5-52-15-56s-28.666 1.333-26 16z"/>
        <path fill="#FFF" d="M182 144h164.474v160.44c0 55.23-44.771 100-100 100H182c-55.228 0-100-44.77-100-100V244c0-55.228 44.772-100 100-100z" opacity=".3"/>
        <path fill="url(#c)" d="M38.119 160.945c28.8-19.765 43.2-38.119 43.2-55.06 0-25.412-17.788-22.024-5.929-43.201 11.86-21.177 11.012-23.718 4.235-28.8-6.776-5.083-10.511-16.095-14.4-24.566C61.337.848 55.06-1.694 48.284 3.388c-6.777 5.083 4.235 30.495-10.165 30.495-14.4 0-13.554 15.248-9.318 22.024 4.235 6.777 7.623 14.4-5.083 14.4s-14.4 8.471-8.47 16.095c5.929 7.624 15.247 25.412-1.695 25.412-16.941 0-20.037 31.342 5.93 49.131l10.165 3.388 8.47-3.388z" transform="translate(257 278)"/>
        <path stroke="#FFF" stroke-linecap="square" d="M310.366 288.165c6.777 5.647 9.035 16.942 6.777 33.883-3.389 25.412-13.554 42.354-13.554 63.531s-2.54 46.59-16.094 55.06M280.718 352.543c3.389 9.6 11.577 14.965 24.566 16.094M327.308 356.778c-6.777 3.389-13.271 4.236-19.483 2.542M315.448 333.06c9.6-5.082 14.966-10.447 16.095-16.094M307.825 305.954c2.085 5.647 5.473 8.47 10.165 8.47"/>
        <path stroke="#FFF" d="M275.636 393.203c6.776 10.73 15.53 16.094 26.26 16.094 10.729 0 21.74-6.212 33.035-18.635"/>
        <path fill="url(#b)" d="M318.926 422.508c-13.257 13.95-30.498 24.078-49.9 28.56.502-17.344 8.323-27.53 23.465-30.558 12.706-2.541 21.518-1.875 26.435 1.998z"/>
        <path fill="url(#d)" d="M579.68 353.632H362v-214.36C362 86.653 405.315 44 458.747 44H579.68c53.432 0 96.747 42.654 96.747 95.271v119.09c0 52.616-43.315 95.27-96.747 95.27z" opacity=".798"/>
        <path fill="url(#a)" d="M527.403 354.272H362v-162.88C362 151.41 394.913 119 435.512 119h91.891c40.6 0 73.513 32.41 73.513 72.391v90.49c0 39.98-32.913 72.391-73.513 72.391z"/>
        <path fill="url(#e)" d="M417.242 449.883H362v-53.919C362 382.729 372.992 372 386.552 372h30.69c13.56 0 24.552 10.729 24.552 23.964v29.955c0 13.235-10.992 23.964-24.552 23.964z" opacity=".798" transform="matrix(1 0 0 -1 0 821.883)"/>
        <path fill="url(#f)" d="M392.984 416.682H362v-30.241c0-7.423 6.165-13.441 13.77-13.441h17.214c7.605 0 13.77 6.018 13.77 13.44v16.801c0 7.423-6.165 13.441-13.77 13.441z" opacity=".782" transform="matrix(1 0 0 -1 0 789.682)"/>
        <path fill="url(#g)" d="M657.199 316.76A96.433 96.433 0 0 1 642 332.49V285h15.199v31.76z"/>
        <path fill="url(#h)" d="M500.435 133.536V133l3.335.268 3.335-.268v.536l11.856.954v15.49c0 4.337 25.195 17.968 32.852 22.925 7.658 4.957 8.296 13.63 10.848 24.164 2.553 10.533 8.934 43.372 11.486 54.525 1.702 7.435-2.127 15.077-11.486 22.925H444.88c-9.36-7.848-13.188-15.49-11.486-22.925 2.552-11.153 8.933-43.992 11.486-54.525 2.552-10.533 3.19-19.207 10.847-24.164 7.658-4.957 32.852-18.588 32.852-22.925v-15.49l11.857-.954z"/>
        <path fill="url(#i)" d="M523.566 154c7.638 5.844 22.642 14.074 28.247 17.682 7.658 4.93 8.296 13.555 10.848 24.028 2.553 10.474 8.934 43.128 11.486 54.218 1.702 7.393-2.127 14.992-11.486 22.796H444.88c-9.36-7.804-13.188-15.403-11.486-22.796 2.552-11.09 8.933-43.744 11.486-54.218 2.552-10.473 3.19-19.099 10.847-24.028 5.915-3.807 21.259-11.816 28.406-17.682l19.638 32.81L523.566 154z"/>
        <path fill="url(#j)" d="M535.158 167.188a1.81 1.81 0 0 1-.29.972c-1.453 2.178-7.264 5.083-17.434 8.713 2.18 5.81 2.18 9.803 0 11.982-2.18 2.178-7.99 5.446-17.434 9.803l16.466-33.704L523.081 154c1.863 1.424 4.163 2.99 6.66 4.596 7.744 4.985 17.367 10.358 21.61 13.086 7.663 4.93 8.301 13.555 10.856 24.028 2.554 10.474 8.94 43.128 11.495 54.218 1.703 7.393-2.13 14.992-11.495 22.796h-2.659c-7.048-60.32-11.643-91.908-13.784-94.761-1.253-1.67-4.789-5.262-10.606-10.775z"/>
        <path fill="url(#k)" d="M455 326h99.992a7 7 0 0 1 7 7v4.046a7 7 0 0 1-7 7H455a7 7 0 0 1-7-7V333a7 7 0 0 1 7-7z"/>
        <path fill="url(#l)" d="M450 263h109.892a3 3 0 0 1 3 3v.649a3 3 0 0 1-3 3H450a3 3 0 0 1-3-3V266a3 3 0 0 1 3-3z"/>
        <path fill="#FFF" d="M504 186.293L523.073 154c5.18 5.871 7.3 9.786 6.358 11.743-.942 1.957-4.945 5.137-12.01 9.54-.941 4.405-1.595 6.851-1.961 7.34-.367.49-4.187 1.713-11.46 3.67zM502.648 186.293L483.703 154c-5.281 5.871-7.442 9.786-6.481 11.743.96 1.957 5.04 5.137 12.243 9.54.96 4.405 1.627 6.851 2 7.34.374.49 4.101 1.713 11.183 3.67z"/>
        <path fill="url(#i)" d="M457.851 285c-6.224 18.323-6.459 30.459-.705 36.407 16.568 17.13 85.145 17.13 97.477 1.429 4.936-6.285 5.087-18.896.454-37.836h-97.226z"/>
        <path fill="url(#j)" d="M529.539 286h24.98c4.65 18.516 4.497 30.958-.455 37.325-4.644 5.971-17.235 9.701-32.034 11.114-4.7-4.215-1.47-13.453 9.69-27.715-2.909-10.907-7.998-16.361-15.27-16.361-7.27 0-13.087 1.09-17.45 3.272 5.817-5.09 11.634-7.635 17.45-7.635 5.817 0 10.907 1.454 15.27 4.363L529.539 286z"/>
        <path fill="url(#m)" d="M467.03 354.042C466.597 328.62 470.656 317 487.448 317c15.695 0 18.926 12.922 17.087 37.042h-37.503z"/>
        <path fill="url(#m)" d="M509.092 353.85c-14.213-35.265-18.255-52.745.892-58.967 18.605-6.045 26.653 19.52 34.409 58.967h-35.301z"/>
        <path fill="url(#n)" d="M447.243 260.625l-16.09-70.286A6 6 0 0 1 437 183h134.544a6 6 0 0 1 5.892 7.133l-13.53 70.355a4 4 0 0 1-3.927 3.244H451.142a4 4 0 0 1-3.899-3.107z"/>
        <path fill="#FAFAFA" d="M442.002 237.063l-10.845-46.706A6 6 0 0 1 437 183h45.422c-24.01 1.444-38.563 2.166-43.656 2.166-7.64 0-5.457 5.413-4.366 9.744.728 2.888 3.275 16.964 7.64 42.228l-.04-.075z"/>
        <path fill="#F1D4CA" d="M519.398 141.176c-4.449 4.46-8.156 8.92-15.2 8.92-8.525 0-11.491-5.203-15.198-9.663v-5.946l11.863-.952V133l3.336.268 3.336-.268v.535l11.863.952v9.026-2.337z"/>
        <path fill="url(#o)" d="M561.472 141.758a45.41 45.41 0 0 1-.505 14.984c-.13.65-.28 1.28-.452 1.894 1.605 2.181 3.995 3.638 7.17 4.37-3.186.112-6.107.021-8.762-.272-4.12 8.018-13.055 12.028-26.803 12.028 7.212 0 13.221-3.604 18.03-10.812a20.731 20.731 0 0 0 1.535-2.725c-5.098-1.69-8.656-4.552-10.674-8.586-5.557-11.108 5.928-19.254 1.482-27.4-2.964-5.43-3.952-13.329-2.964-23.696 10.373-28.633 12.35-46.9 5.928-54.798-6.422-7.899-21.24-18.266-44.457-31.102 2.47-12.835 12.596-17.772 30.379-14.81 26.674 4.443 40.752 36.285 40.752 45.912 0 9.627-5.187 14.81-5.187 23.696 0 8.887 8.15 11.108 8.15 19.994 0 8.887-5.186 9.627-5.186 17.773 0 8.145 3.705 11.107 3.705 19.994 0 6.194-7.56 8.79-12.14 13.556z"/>
        <path fill="url(#o)" d="M475.299 121.427C450.891 85.89 445.66 58.16 459.608 38.235c20.921-29.888 65.006-29.404 87.422 0 14.944 19.602 10.212 47.333-14.197 83.192H475.3z"/>
        <path fill="url(#p)" d="M464 64.439C467.984 42.813 480.65 32 501.997 32s34.013 10.813 37.997 32.439c-2.336 32.221-5.423 51.37-9.26 57.444-5.757 9.112-20.101 15.544-28.737 15.544s-22.98-6.432-28.736-15.544c-3.838-6.075-6.925-25.223-9.261-57.444z"/>
        <path fill="#EAC7BB" d="M538.045 86.956a67.21 67.21 0 0 1-7.821-5.804c-5.067-4.37-8.685-16.02-10.857-34.953-4.282 7.282-8.971 13.836-14.068 19.661-7.644 8.738-32.614 14.2-34.785 16.384-1.448 1.456-2.533 6.553-3.257 15.292l-.048-.048c-1.193-8.806-2.262-19.769-3.209-32.888 3.984-21.733 16.65-32.6 37.997-32.6s34.013 10.867 37.997 32.6c-.6 8.32-1.25 15.771-1.949 22.356z"/>
        <path fill="#9A613A" fill-rule="nonzero" d="M536.954 102.564c.046-.787.754-1.4 1.583-1.369.829.032 1.463.695 1.418 1.482-.175 3.04-.79 6.966-1.842 11.792-1.692 7.758-9.026 13.954-17.89 15.17-5.492.755-9.21 1.278-11.15 1.568-.822.123-1.583-.408-1.7-1.186-.118-.778.453-1.508 1.275-1.631 1.956-.293 5.684-.817 11.19-1.573 7.626-1.047 13.908-6.355 15.332-12.886 1.024-4.697 1.618-8.49 1.784-11.367z"/>
        <path fill="url(#o)" d="M461.014 80.272c18.316-3.52 31.187-8.297 38.612-14.33 7.426-6.035 13.861-13.829 19.306-23.383 2.97 11.063 6.683 19.862 11.139 26.399 4.455 6.537 8.663 11.314 12.623 14.33C540.219 49.097 525.863 32 499.626 32c-26.236 0-39.107 16.09-38.612 48.272z"/>
        <path fill="url(#q)" d="M462.708 80.339c0-30.554 12.607-45.831 37.822-45.831 25.215 0 38.317 15.277 39.306 45.83h3.708C542.555 46.78 528.217 30 500.53 30 472.843 30 459 46.78 459 80.339h3.708z"/>
        <path fill="url(#q)" d="M466.949 106.113L464.365 77c-12.629.54-18.37 5.93-17.221 16.174 1.148 10.243 7.75 14.556 19.805 12.939z"/>
        <path fill="url(#r)" d="M463.831 73.304a4.275 4.275 0 0 1 4.275 4.275v27.542a4.275 4.275 0 1 1-8.55 0V77.58a4.275 4.275 0 0 1 4.275-4.275z" transform="rotate(-5 463.831 91.35)"/>
        <ellipse cx="478.974" cy="106.023" fill="#FF0101" opacity=".05" rx="9.974" ry="9.023"/>
        <ellipse cx="525.974" cy="106.023" fill="#FF0101" opacity=".05" rx="9.974" ry="9.023"/>
        <path fill="url(#s)" d="M609.67 235h27.739c11.682-30.667 7.562-46-12.361-46-19.923 0-25.049 15.333-15.378 46z"/>
        <path stroke="#FFF" stroke-linecap="round" stroke-linejoin="round" d="M619 235c-5.333-12.667-7.333-22.667-6-30 1.333-7.333 5-12.667 11-16l-1 46h7c6-16 7.667-27 5-33s-6.195-10-10.585-12"/>
        <path fill="url(#q)" d="M597.158 236.917l7.486 31.783h35.573l7.768-31.75a4 4 0 0 0-3.886-4.95h-43.047a4 4 0 0 0-3.894 4.917z"/>
        <path fill="url(#q)" d="M557.949 106.113L555.365 77c-12.629.54-18.37 5.93-17.221 16.174 1.148 10.243 7.75 14.556 19.805 12.939z" transform="matrix(-1 0 0 1 1095.949 0)"/>
        <path fill="#FFF" d="M486 111h32.298c0 12.03-5.383 18.046-16.15 18.046-10.765 0-16.148-6.015-16.148-18.046z"/>
        <path fill="#4F3721" d="M503.8 127h6.65a3.8 3.8 0 1 1 0 7.598h-6.65a3.8 3.8 0 1 1 0-7.598z"/>
        <path fill="url(#r)" d="M542.831 73.304a4.275 4.275 0 0 1 4.275 4.275v27.542a4.275 4.275 0 1 1-8.55 0V77.58a4.275 4.275 0 0 1 4.275-4.275z" transform="scale(-1 1) rotate(-5 0 12524.23)"/>
        <path fill="url(#o)" d="M470.928 102.76c-.299 7.815-1.083 13.251-2.353 16.308-2.685 6.466-9.411 11.808-9.411 15.566 0 9.637 5.882 11.86 5.882 16.308 0 2.965-1.96 5.93-5.882 8.896 2.091-3.46 3.137-6.425 3.137-8.896 0-3.706-7.86-9.035-6.388-18.204 1.472-9.17 5.485-8.365 8.28-15.92 1.863-5.037 3.8-12.859 5.808-23.466l.927 9.408z" transform="rotate(-3 463.329 126.595)"/>
        <path fill="url(#t)" d="M474.62 123.786c-1.075 2.322-1.075 4.18 0 5.572 1.074 1.393 2.418 2.09 4.03 2.09-3.762 0-5.911-1.161-6.448-3.483-.538-2.322 0-4.643 1.612-6.965l.806 2.786z"/>
        <ellipse cx="481.325" cy="92.274" fill="#3B3B3B" rx="3.325" ry="4.274"/>
        <ellipse cx="522.325" cy="92.274" fill="#3B3B3B" rx="3.325" ry="4.274"/>
        <path fill="#333" fill-rule="nonzero" d="M479.052 78.665c-.534.341-1.257.227-1.616-.256-.358-.482-.216-1.15.317-1.492 1.106-.708 2.27-1.152 3.48-1.322 1.21-.17 2.451-.064 3.71.312.607.181.927.784.715 1.347-.211.562-.875.872-1.482.69-.926-.276-1.804-.351-2.646-.233-.841.118-1.664.433-2.478.954zM518.687 77.945c-.607.18-1.271-.129-1.483-.691-.211-.563.11-1.166.716-1.347 1.258-.376 2.499-.482 3.71-.312 1.21.17 2.374.614 3.48 1.322.533.342.675 1.01.316 1.492-.358.483-1.081.597-1.615.256-.814-.521-1.637-.836-2.479-.954-.841-.118-1.72-.043-2.645.234z"/>
        <path fill="url(#g)" d="M411 284h15.199v70.285H411z"/>
        <path fill="url(#u)" d="M391.4 266.5h283.978c5.523 0 10 4.477 10 10s-4.477 10-10 10H391.401c-5.523 0-10-4.477-10-10s4.477-10 10-10z"/>
        <path fill="url(#v)" d="M189.245 181.55V181l3.425.275 3.424-.275v.55l12.175.98 1.38 16.594c0 4.453 29.323 17.762 37.185 22.852 7.863 5.09 8.518 13.997 11.14 24.813 2.62 10.816 4.341 44.536 6.962 55.988 1.747 7.635-2.184 15.482-11.794 23.541H132.197c-9.61-8.059-13.541-15.906-11.794-23.54 2.621-11.453 4.342-45.173 6.963-55.989 2.621-10.816 3.276-19.723 11.14-24.813 7.862-5.09 37.184-18.399 37.184-22.852l1.38-16.594 12.175-.98z"/>
        <path fill="#EAC7BB" d="M208.492 190.587c-5.803 4.373-10.585 6.56-14.348 6.56-4.309 0-10.357-2.869-18.144-8.604l.567-6.107 12.753-.92V181l3.587.258 3.587-.258v.517l11.222.129.776 8.94z"/>
        <path fill="url(#o)" d="M162.513 170.226c-24.633-36.817-29.911-65.547-15.835-86.19 21.113-30.965 65.602-30.464 88.224 0 15.08 20.31 10.305 49.04-14.327 86.19h-58.062z"/>
        <path fill="url(#w)" d="M153 111.327C157.084 88.442 170.066 77 191.947 77c21.881 0 34.863 11.442 38.947 34.327-2.394 34.097-5.558 54.36-9.492 60.788-5.9 9.643-22.164 17.91-29.455 17.91-7.291 0-23.554-8.267-29.455-17.91-3.933-6.428-7.097-26.69-9.492-60.788z"/>
        <path fill="#EAC7BB" d="M160 92.53C166.642 82.178 177.38 77 192.212 77c21.848 0 35.176 11.232 39.983 33.695-.342 3.661-.688 7.16-1.039 10.496h-25.291c-18.324 0-31.485-6.461-39.486-19.384L160 92.531z"/>
        <path fill="#FDE9E3" d="M160.35 160.895l-3.459-20.147c-5.927-1.931-8.891-.122-8.891 5.426 0 5.547 4.116 10.455 12.35 14.721z"/>
        <path fill="#F1D4CA" d="M158.6 157.297l-2.128-12.821c-3.648-1.229-5.472-.078-5.472 3.453 0 3.53 2.533 6.653 7.6 9.368zM224 160.895l3.458-20.147c5.927-1.931 8.891-.122 8.891 5.426 0 5.547-4.116 10.455-12.349 14.721z"/>
        <path fill="#ECC3B6" d="M226 157.297l2.128-12.821c3.648-1.229 5.471-.078 5.471 3.453 0 3.53-2.533 6.653-7.599 9.368z"/>
        <ellipse cx="166.974" cy="154.973" fill="#FF5601" opacity=".05" rx="9.974" ry="9.973"/>
        <ellipse cx="216.974" cy="154.973" fill="#FF5601" opacity=".05" rx="9.974" ry="9.973"/>
        <path fill="#FFF" d="M176 164h31.348c-1.745 8.865-6.97 13.297-15.674 13.297-8.705 0-13.93-4.432-15.674-13.297z"/>
        <ellipse cx="172.325" cy="139.274" fill="#3B3B3B" rx="3.325" ry="4.274"/>
        <ellipse cx="211.325" cy="139.274" fill="#3B3B3B" rx="3.325" ry="4.274"/>
        <path fill="url(#o)" d="M166.149 101.082l-11.18 33.91c-4.969-6.166-6.211-15.157-3.727-26.974 2.485-11.816 7.454-14.128 14.907-6.936z"/>
        <path fill="url(#o)" d="M162.799 103.352c-2.388-4.499-3-3.389-6.547-8.617-11.852-17.472 26.165-20.45 42.233-19.31 16.067 1.14 24.623-5.869 31.196-5.403 6.573.466 15.72 6.19 14.442 24.713-1.278 18.523-15.503 22.59-48.368 20.26-21.91-1.553-32.895-5.434-32.956-11.643z"/>
        <path fill="#3B3B3B" d="M171.066 121.246c3.72-.946 8.183.945 8.183 3.782s-3.29.433-7.125.946c-3.834.513-6.265 2.836-7.01.945-.743-1.891 2.232-4.728 5.952-5.673zM213.183 121.246c-3.72-.946-8.183.945-8.183 3.782s3.29.433 7.124.946c3.835.513 6.266 2.836 7.01.945.744-1.891-2.232-4.728-5.951-5.673z"/>
        <path fill="url(#b)" d="M139 453.033a1804.776 1804.776 0 0 0 3.402-36.032c1.377-16.421 2.754-29.422 4.13-39.001h95.014l9.546 75.033h-49.81l-2.08-16.531-1.039 16.531H139z"/>
        <path fill="url(#x)" d="M250.392 453.033h-15.864c-2.43-24.47-4.86-37.882-7.29-40.235-4.34-4.203-10.85-2.175-27.127-3.262-10.4-.695-29.103-4.386-56.111-11.073.37-3.667.738-7.085 1.107-10.255 8.32-3.88 16.283-7.283 23.893-10.208h71.9l9.492 75.033zM196.505 452.946H193l.62-1.108L197.581 433l.168 3.844-.168-1.628z"/>
        <path fill="url(#b)" d="M147.666 216c-8.111 4.094-13.518 7.164-16.222 9.21-4.056 3.07-31.43 86.988-30.417 100.292 1.014 13.304 32.445 16.374 32.445-8.187 0-9.259 12.033-23.704 14.194-46.052 1.107-11.45 1.107-29.87 0-55.263z"/>
        <path fill="url(#b)" d="M284.497 214c-8.084 4.11-13.473 7.194-16.168 9.249-4.042 3.083-31.767 93.516-31.324 102.765.444 9.249 34.356 16.442 34.356-8.221 0-10.04 4.818-20.879 8.083-46.245 1.388-10.784 3.072-29.967 5.053-57.548z" transform="matrix(-1 0 0 1 521.497 0)"/>
        <path fill="url(#x)" d="M247.354 300.987c-1.633-7.183-3.708-16.319-5.377-29.224-1.13-8.733-2.456-22.987-3.977-42.763l3.977 3.785c4.03 12.944 7.212 23.284 9.546 31.022 4.82 15.979 9.693 24.488 11.365 30.768 2.886 10.84-.902 15.537-11.365 14.092l-4.17-7.68z"/>
        <path fill="url(#x)" d="M136.427 287.608c-1.632-7.183-3.707-16.319-5.377-29.224-1.13-8.733-2.455-22.987-3.976-42.763l3.976 3.785c4.03 12.944 7.213 23.284 9.547 31.022 4.819 15.979 9.693 24.488 11.365 30.768 2.886 10.84-.902 15.537-11.365 14.092l-4.17-7.68z" transform="scale(-1 1) rotate(3 0 -5090.26)"/>
        <path fill="url(#c)" d="M166.793 206c8.889 6.837 17.777 9.914 26.666 9.23 8.888-.683 17.093-3.76 24.614-9.23 9.572 4.102 16.41 7.18 20.511 9.23 2.393 1.196 3.458 49.353 4.726 59.058 2.242 17.17 7.582 109.024 7.582 115.293 0 5.044-31.455 7.732-56.92 8.205-26.313.488-58.972-1.43-58.972-8.205 0-6.64 4.905-49.11 7.582-90.362 2.697-41.581 3.177-81.93 5.75-83.989 3.42-2.735 9.573-5.811 18.461-9.23z"/>
        <path fill="url(#y)" d="M222.554 306.708c-.597-2.056-1.246-3.807-1.947-5.254-2.5-5.163-5.434-24.744-20.651-24.744-10.145 0-30.797 15.955-61.956 47.865l19.565-34.811c22.463-23.933 35.869-35.9 40.217-35.9 4.487 0 16.693 5.666 24.934 10.618-.122-13.032-.621-27.719-2.109-49.218-.141-2.045-2.13-4.359-5.966-6.942a53.546 53.546 0 0 0 3.465-2.322c9.607 4.117 16.468 7.205 20.585 9.264 2.4 1.2 3.47 49.53 4.742 59.27 2.25 17.23 7.609 109.416 7.609 115.707 0 3.096-9.633 5.308-24.652 6.667.338-23.93-3.771-63.91-3.836-90.2z"/>
        <path fill="url(#z)" d="M159 262.818c5.807-11.543 8.71-18.036 8.71-19.48 0-2.164 2.179-10.821 5.445-14.068 3.267-3.247 14.155 23.808 10.889 25.973-2.178 1.443-7.622 7.575-16.333 18.397L159 262.818z"/>
        <path fill="url(#z)" d="M201 265.818c5.807-11.543 8.71-18.036 8.71-19.48 0-2.164 2.179-10.821 5.445-14.068 3.267-3.247 14.155 23.808 10.889 25.973-2.178 1.443-7.622 7.575-16.333 18.397L201 265.818z" transform="matrix(-1 0 0 1 427.648 0)"/>
        <path fill="url(#b)" d="M101.815 322.271c-5.16 16.55 15.481 19.652 25.802 13.446 6.881-4.137 22.707-27.472 47.478-70.004-3.786-.073-7.055-.8-9.807-2.178-2.752-1.38-4.568-3.558-5.448-6.535-35.243 32.482-54.585 54.239-58.025 65.271z"/>
        <path fill="url(#b)" d="M207.61 321.49c-4.532 16.38 17.355 19.45 27.564 13.308 6.806-4.094 23.38-27.845 49.72-71.252-3.047 1.365-5.932 1.365-8.655 0-2.722-1.365-5.241-3.547-7.557-6.546-37.694 32.075-58.051 53.572-61.072 64.49z" transform="matrix(-1 0 0 1 491.894 0)"/>
        <path fill="url(#t)" d="M171.075 203.267c7.36 5.43 14.95 8.144 22.769 8.144 11.73 0 20.699-6.108 22.079-7.465 1.38-1.357 2.76-1.357 5.52.679 2.76 2.035 2.76 3.393 2.07 4.071-.69.679-10.35 9.5-29.669 9.5-19.319 0-26.909-9.5-28.289-10.857-1.38-1.357 0-2.036 2.07-3.393 1.38-.905 2.53-1.131 3.45-.679z"/>
        <path fill="url(#A)" d="M179 191h24.934a8 8 0 0 1 7.984 8.502l-3.353 53.335a8 8 0 0 1-7.985 7.498h-18.227a8 8 0 0 1-7.984-7.498l-3.353-53.335A8 8 0 0 1 179 191z"/>
        <path fill="#FDE9E3" d="M166.598 228.05l9.612-5.55a3 3 0 0 1 4.098 1.098l.324.562a3 3 0 0 1-1.098 4.098l-9.612 5.55a3 3 0 0 1-4.098-1.099l-.324-.562a3 3 0 0 1 1.098-4.098z"/>
        <path fill="#FDE9E3" d="M166.12 235.917l8.612-7.09c1.298-1.068 3.19-.952 4.226.259 1.037 1.21.826 3.058-.471 4.126l-8.612 7.091c-1.297 1.068-3.19.952-4.226-.26-1.037-1.21-.826-3.058.472-4.126zM166.097 243.293l8.971-6.63c1.351-.998 3.235-.783 4.207.48.971 1.264.664 3.098-.687 4.096l-8.972 6.63c-1.35 1-3.234.784-4.206-.48-.972-1.263-.664-3.097.687-4.096z"/>
        <path fill="#FDE9E3" d="M168.18 246.51l8.62-.926c1.297-.14 2.484.708 2.65 1.894.165 1.185-.754 2.26-2.052 2.4l-8.618.925c-1.298.14-2.485-.708-2.65-1.894-.166-1.186.753-2.26 2.05-2.4zM215.576 228.509l-10.217-4.337a3 3 0 0 0-3.933 1.59l-.254.596a3 3 0 0 0 1.59 3.934l10.216 4.337a3 3 0 0 0 3.934-1.59l.253-.596a3 3 0 0 0-1.59-3.934z"/>
        <path fill="#FDE9E3" d="M215.58 232.879l-11.003-1.835c-1.658-.276-3.238.77-3.53 2.338-.292 1.567.814 3.061 2.472 3.337l11.003 1.835c1.657.276 3.238-.77 3.53-2.337.292-1.567-.814-3.062-2.472-3.338zM215.58 238.879l-11.003-1.835c-1.658-.276-3.238.77-3.53 2.338-.292 1.567.814 3.061 2.472 3.337l11.003 1.835c1.657.276 3.238-.77 3.53-2.337.292-1.567-.814-3.062-2.472-3.338zM214.34 245.41l-8.558-1.377c-1.29-.207-2.518.578-2.746 1.753-.227 1.176.634 2.296 1.923 2.504l8.558 1.376c1.29.207 2.518-.578 2.746-1.753.227-1.176-.634-2.297-1.923-2.504z"/>
        <ellipse cx="178.85" cy="198.849" fill="#5C5C5C" stroke="#979797" rx="2.85" ry="2.849"/>
        <ellipse cx="184.95" cy="197.95" fill="#A5A5A5" rx="1" ry="1"/>
        <ellipse cx="503.599" cy="224.598" fill="url(#B)" rx="7.599" ry="7.598"/>
        <ellipse cx="192.175" cy="224.174" fill="url(#C)" rx="6.175" ry="6.174"/>
        <path fill="url(#D)" d="M484 154l13.802 30.393h4.247z" opacity=".64"/>
        <path fill="url(#E)" d="M360.09 169.46v9.991a1 1 0 0 1-1.707.708l-10.72-10.698H276c-5.523 0-10-4.477-10-10V121c0-5.523 4.477-10 10-10h88.292c5.523 0 10 4.477 10 10v38.46c0 5.524-4.477 10-10 10h-4.202z" opacity=".835" transform="matrix(-1 0 0 1 640.292 0)"/>
        <ellipse cx="323.275" cy="140.274" fill="#FFF" rx="4.275" ry="4.274"/>
        <ellipse cx="344.275" cy="140.274" fill="#FFF" rx="4.275" ry="4.274"/>
        <ellipse cx="301.275" cy="140.274" fill="#FFF" rx="4.275" ry="4.274"/>
        <path fill="url(#c)" d="M96.519 446.416c8.666-114.667-2-184.333-32-209-45-37-100 11-34 42 44 20.667 66 76.333 66 167z" opacity=".625"/>
        <path stroke="#FFF" d="M99 446c.667-94.667-9-152-29-172s-33.667-29.333-41-28"/>
        <path fill="url(#c)" d="M124.048 452.544h50.298c-2.187-15.974-11.299-25.05-27.336-27.228-16.037-2.178-23.691 6.898-22.962 27.228z" opacity=".516"/>
        <path fill="url(#c)" d="M108.946 67.995v12.004a1 1 0 0 1-1.708.707L94.557 67.995H10c-5.523 0-10-4.478-10-10V10C0 4.477 4.477 0 10 0h105.39c5.524 0 10 4.477 10 10v47.995c0 5.522-4.476 10-10 10h-6.444z" opacity=".766" transform="translate(299 28)"/>
        <path fill="#FFF" d="M333.71 50.871h55.97a2 2 0 0 1 2 2v2.535a2 2 0 0 1-2 2h-55.97a2 2 0 0 1-2-2V52.87a2 2 0 0 1 2-2zM333.71 69.386h55.97a2 2 0 0 1 2 2v2.534a2 2 0 0 1-2 2h-55.97a2 2 0 0 1-2-2v-2.534a2 2 0 0 1 2-2z"/>
        <path fill="url(#b)" d="M156.726 436.239c-2.3-30.335-13.338-52.397-33.115-66.185-29.664-20.683-43.462 19.304-25.525 25.509 17.937 6.204 30.355 4.826 40.013 13.099 6.439 5.515 12.648 14.707 18.627 27.577z" opacity=".521" transform="scale(-1 1) rotate(17 0 -425.503)"/>
        <path fill="url(#F)" d="M16 98.094c-3.636 1.453-6.545 2.18-10.182 2.906C3.204 93.434 1.9 83.501.331 77.016c-2.353-9.729 8.627-14.593 8.627-21.89 0-7.295-5.49-14.591 0-25.13 5.49-10.54 17.255-4.865 21.96-8.107C35.625 18.646 37.979 0 49.743 0c11.765 0 9.855 10.539 16.914 12.971 7.059 2.432 16.914-6.485 21.62-2.432 3.137 2.702 5.712 9.188 7.724 19.457-7.059-11.35-37.404-12.926-51.521-1.576C35.067 35.987 24.713 59.211 16 98.094z" transform="matrix(-1 0 0 1 112 349)"/>
        <path fill="url(#c)" d="M16.061 98c-1.458-37.09 23.402-73.364 37.553-77.502 21.226-6.207 37.431 0 43.386 9.339-6.065 3.448-11.632 6.98-15.002 6.98-5.053 0-9.096-8.276-15.161-5.172-6.065 3.103 2.021 9.31-3.032 14.483-5.054 5.173-18.194-2.069-21.227 4.139-3.032 6.207 5.054 11.38-1.01 19.656-6.065 8.277-12.13 4.138-14.151 10.346-1.348 4.138-1.66 9.731 0 12.64-3.646 2.182-6.98 3.636-11.356 5.091z" transform="matrix(-1 0 0 1 112 349)"/>
        <path stroke="#FFF" d="M98 447c-4-34.667-13.333-58.333-28-71-14.667-12.667-32-13-52-1"/>
        <path stroke="#FFF" d="M69.11 375.822c2.09-2.392 2.956-6.143 2.599-11.254-.358-5.112-2.082-8.743-5.172-10.893M75.108 381.221c-2.523 4.449-5.228 7.06-8.115 7.834-2.888.773-6.183 1.185-9.884 1.233M32 369c-1.333-1.333-2.667-2.333-4-3-1.333-.667-2.667-1-4-1M91.939 415.24c-2.305 1.5-5.673 1.954-10.107 1.365-4.433-.588-6.866-1.513-7.3-2.774M89 407c2.667-1.333 5-3.667 7-7s2.667-9.667 2-19"/>
        <path stroke="#FFF" stroke-linecap="round" d="M641.922 207.595l3.156-.19M639 214l3-1M636 193.604l1.794-2.604M628 191.604l1.794-2.604M626.603 199.802l1.794-2.604M624 209l3-1M626.922 201.595l3.156-.19M633.922 222.595l3.156-.19M628.603 220.802l1.794-2.604M610 205l-3-1M607.157 208.19L604 208M611 196.604L609.206 194M619 194.604L617.206 192M620.397 202.802l-1.794-2.604M623 212l-3-1M613.078 225.595l-3.156-.19M618.397 223.802l-1.794-2.604"/>
        <path fill="url(#G)" d="M624 191c-5.333 2-8 .333-8-5 0-8 17-8 17 0 0 5.333-3 7-9 5z"/>
    </g>
</svg>
